<svg width="200" height="56" viewBox="0 0 200 56" fill="none" xmlns="http://www.w3.org/2000/svg">
<path d="M162.881 13.766C165.229 13.766 174.515 13.8106 174.515 13.8106L181.678 32.1708L188.779 13.7716L199.436 13.9219C199.436 13.9219 191.049 32.4381 189.026 38.7976C185.746 46.3656 181.796 62.2087 163.6 52.8031C163.999 52.2239 166.251 47.5851 167.308 45.4523C168.903 47.0338 174.746 49.0107 175.566 44.3163C172.47 33.1732 165.836 20.2091 162.881 13.766ZM149.853 3.15749L149.841 45.0458L161.661 45.0402L161.678 3.16863L149.853 3.15749ZM133.415 17.33C133.415 17.33 130.229 13.3316 123.538 13.3316C117.151 13.3595 108.926 18.2878 108.926 28.0165C110.184 48.6933 133.19 42.6289 133.19 38.7419C133.33 41.0585 132.409 45.1794 128.375 46.7999C122.173 48.5096 114.797 44.3887 114.797 44.3887L110.786 51.5167C110.786 51.5167 114.302 55.3814 126.33 55.7601C144.105 56.3114 143.549 41.0196 143.549 41.0196L143.993 13.7047L133.628 13.7716L133.415 17.33ZM120.297 27.9552C120.297 24.5806 123.055 21.8463 126.46 21.8463C129.864 21.8463 132.622 24.5806 132.622 27.9552C132.622 31.3299 129.864 34.0642 126.46 34.0642C123.055 34.0586 120.297 31.3243 120.297 27.9552ZM72.0274 14.3563L72.0049 45.0848L82.6846 45.1015L82.8194 27.003C82.8194 27.003 83.2745 23.244 88.2351 23.1215C92.6733 23.0157 93.3924 26.5575 93.3924 26.5575L93.4991 45.0402L104.757 45.0124L104.555 25.828C104.555 25.828 103.948 14.9132 93.1789 14.373C85.3644 13.9776 82.1621 17.33 82.1621 17.33L82.1003 14.4008L72.0274 14.3563ZM66.6454 22.5257C63.6904 23.8121 61.3196 26.3124 59.9207 27.9942C58.8477 29.3419 56.3927 33.0284 55.9601 35.2392C55.6567 37.6059 56.0837 44.4778 56.0837 44.4778C56.0949 45.1293 56.5331 45.6583 57.1904 45.6528L65.6173 45.6194C66.6342 45.6138 67.46 44.7896 67.4488 43.7817L67.4207 33.4572L67.2915 22.8654C67.2353 22.3753 66.9993 22.3363 66.6454 22.5257ZM61.9713 13.9219C59.1286 14.4231 56.5444 14.7071 56.2859 15.3475C56.2859 16.5114 56.2859 23.4668 56.2859 26.0229C58.314 24.8144 65.2185 20.5376 66.4825 19.4963C66.8083 19.229 67.5667 18.4104 67.5948 17.2465C67.6342 15.7986 67.5948 13.0532 67.5948 13.0532C67.5948 13.0532 64.7915 13.482 61.9713 13.9219ZM67.4488 6.17577C67.4488 2.76768 64.6173 0 61.123 0C57.6286 0 54.7916 2.76211 54.7916 6.17577C54.7916 9.58942 57.623 12.3515 61.1174 12.3515C64.6117 12.3515 67.4488 9.58385 67.4488 6.17577ZM38.7692 22.8709L38.64 33.4627L38.6119 43.7872C38.6063 44.7952 39.4265 45.6194 40.4434 45.6249L48.8703 45.6583C49.5276 45.6583 49.9714 45.1349 49.977 44.4833C49.977 44.4833 50.4096 37.6115 50.1006 35.2448C49.668 33.034 47.213 29.3474 46.14 27.9998C44.7355 26.3124 42.3703 23.8176 39.4153 22.5312C39.0614 22.3363 38.8254 22.3753 38.7692 22.8709ZM38.4659 13.0588C38.4659 13.0588 38.4265 15.7986 38.4659 17.2521C38.494 18.4159 39.2524 19.2345 39.5782 19.5018C40.8423 20.5376 47.7411 24.82 49.7748 26.0284C49.7748 23.4668 49.7748 16.5114 49.7748 15.3531C49.5219 14.7127 46.9321 14.4287 44.0894 13.9275C41.2636 13.482 38.4659 13.0588 38.4659 13.0588ZM44.9433 12.346C48.4377 12.346 51.2691 9.58385 51.2691 6.1702C51.2691 2.75654 48.4377 0 44.9433 0C41.449 0 38.6119 2.76211 38.6119 6.17577C38.6119 9.58942 41.449 12.346 44.9433 12.346ZM3.62344 33.0507L-0.00012207 40.5629C-0.00012207 40.5629 5.39871 46.7108 19.2244 45.508C26.612 44.4388 33.4378 41.5932 34.2243 32.5884C33.9771 25.3936 27.1794 22.0022 23.1008 21.1279C9.98856 18.8392 10.8818 16.5003 12.6571 14.7405C16.5784 10.9148 28.4322 15.8376 28.4322 15.8376L32.5895 7.75173C32.5895 7.75173 27.4828 3.77006 15.3144 4.5998C11.747 4.83926 1.06167 6.71037 0.258303 16.762C0.258303 31.7643 23.5278 27.7102 22.4828 33.6242C22.1402 35.5677 20.1907 36.5813 15.6402 36.4253C10.3313 36.2416 3.62344 33.0507 3.62344 33.0507Z" fill="url(#paint0_linear_2_436)"/>
<defs>
<linearGradient id="paint0_linear_2_436" x1="-0.00203217" y1="27.8862" x2="199.435" y2="27.8862" gradientUnits="userSpaceOnUse">
<stop stop-color="#EB7821"/>
<stop offset="1" stop-color="#FBAB00"/>
</linearGradient>
</defs>
</svg>
