<?xml version="1.0" encoding="utf-8"?>
<!-- Generator: Adobe Illustrator 26.0.1, SVG Export Plug-In . SVG Version: 6.00 Build 0)  -->
<svg version="1.1" id="Layer_1" xmlns="http://www.w3.org/2000/svg" xmlns:xlink="http://www.w3.org/1999/xlink" x="0px" y="0px"
	 viewBox="0 0 1832 1277" style="enable-background:new 0 0 1832 1277;" xml:space="preserve">
<style type="text/css">
	.st0{fill:#47BFA4;}
	.st1{fill:#413D70;}
	.st2{fill:#4ABDA2;}
</style>
<g>
	<path class="st0" d="M879.17,1165.15c2.4-2.75,3.61-5.84,3.61-9.27V999.36c0-31.58-10.13-56.64-30.4-75.17
		c-20.27-18.88-51.52-28.32-93.77-28.32c-1.89,0-3.74,0.03-5.59,0.07c-5.12,18.99-8.61,38.42-10.36,58.2
		c4.26-1.42,9.23-2.15,14.92-2.15c13.05,0,22.33,3.09,27.82,9.27c5.5,6.18,8.24,15.79,8.24,28.83v7.21l-51.62,7.84
		c1.08,16.99,3.44,33.73,7.01,50.17c0.61-0.12,1.22-0.23,1.85-0.34l43.8-7.72v7.21c0,19.91-4.98,35.01-14.94,45.31
		c-4.09,4.38-8.74,7.82-13.95,10.33c5.56,13.98,12.01,27.68,19.31,41.04c4.68-4.04,8.74-8.46,12.16-13.28v18.02
		c0,3.43,1.2,6.52,3.61,9.27c2.75,2.4,5.84,3.6,9.27,3.6h59.77C873.68,1168.76,876.77,1167.56,879.17,1165.15z"/>
	<path class="st0" d="M1471.04,1151.25c22.67-15.45,34.01-35.87,34.01-61.27c0-19.91-7.73-37.24-23.19-52
		c-15.11-14.76-39.33-25.06-72.65-30.89c-18.55-3.43-32.64-6.69-42.25-9.78c-9.28-3.43-15.46-6.86-18.55-10.3
		c-2.75-3.43-4.12-7.72-4.12-12.87c0-6.52,2.57-11.84,7.72-15.96c5.5-4.12,12.71-6.18,21.65-6.18c7.55,0,13.91,1.2,19.06,3.61
		c5.15,2.4,10.65,5.83,16.49,10.3c3.43,2.75,7.38,5.32,11.85,7.72c2.41,1.72,4.98,2.58,7.73,2.58h53.59c3.09,0,5.66-1.2,7.72-3.6
		c2.41-2.4,3.61-5.15,3.61-8.24c0-8.92-4.81-18.71-14.43-29.35c-9.27-10.98-23.01-20.25-41.22-27.8
		c-18.2-7.55-39.5-11.33-63.89-11.33c-24.39,0-45.51,3.95-63.38,11.84c-17.51,7.89-30.74,18.19-39.67,30.89
		c-8.93,12.7-13.4,26.09-13.4,40.16c0,22.31,7.56,40.16,22.67,53.55c15.46,13.04,37.45,22.48,65.96,28.32
		c18.89,3.78,32.97,7.38,42.25,10.81c9.27,3.09,15.45,6.35,18.55,9.78c3.43,3.43,5.15,8.07,5.15,13.9c0,7.21-3.26,12.87-9.79,16.99
		c-6.18,3.78-14.26,5.66-24.22,5.66c-8.24,0-15.28-1.2-21.12-3.6c-5.5-2.75-12.03-6.86-19.58-12.36c-2.06-1.72-5.15-3.95-9.28-6.69
		c-1.71-1.72-3.6-2.57-5.66-2.57h-58.74c-3.09,0-6.01,1.2-8.76,3.6c-2.41,2.06-3.61,4.8-3.61,8.24c0,8.58,4.47,18.36,13.4,29.35
		c8.93,10.98,22.67,20.42,41.22,28.32c18.89,7.9,42.25,11.84,70.07,11.84C1416.76,1173.91,1448.37,1166.36,1471.04,1151.25z"/>
	<path class="st0" d="M1124.86,1165.15c2.75,2.4,5.84,3.6,9.28,3.6h58.22c3.78,0,6.87-1.2,9.27-3.6c2.41-2.75,3.61-5.84,3.61-9.27
		V816.06c0-3.78-1.2-6.87-3.61-9.27c-2.4-2.4-5.49-3.6-9.27-3.6h-62.86c-3.78,0-6.87,1.2-9.27,3.6c-2.41,2.4-3.61,5.49-3.61,9.27
		v110.18c-19.24-20.25-44.48-30.38-75.74-30.38c-33.32,0-59.6,10.81-78.84,32.44c-18.89,21.62-29.03,50.97-30.4,88.04l-0.52,18.54
		l0.52,18.02c1.72,38.44,11.85,68.31,30.4,89.59c18.89,20.94,45.17,31.41,78.84,31.41c34.69,0,61.48-11.5,80.38-34.5v16.48
		C1121.26,1159.32,1122.46,1162.41,1124.86,1165.15z M1116.62,1052.39c-1.03,15.45-5.33,28.15-12.88,38.1
		c-7.56,9.61-19.07,14.42-34.52,14.42c-16.15,0-27.83-4.81-35.04-14.42c-6.87-9.61-10.82-22.83-11.85-39.65
		c-0.34-3.43-0.52-8.75-0.52-15.96c0-7.21,0.17-12.53,0.52-15.96c1.03-16.82,4.98-30.03,11.85-39.65
		c7.21-9.61,18.89-14.42,35.04-14.42c15.11,0,26.62,4.63,34.52,13.9c7.9,9.27,12.19,20.94,12.88,35.01
		c0.34,4.46,0.51,10.81,0.51,19.05C1117.13,1041.41,1116.96,1047.93,1116.62,1052.39z"/>
	<path class="st0" d="M1805.57,904.62c-2.06-2.4-4.64-3.6-7.73-3.6h-57.71c-6.87,0-12.02,3.6-15.46,10.81l-60.28,149.83
		l-58.74-149.83c-2.75-7.21-7.73-10.81-14.94-10.81h-58.74c-3.09,0-5.67,1.2-7.73,3.6c-2.06,2.06-3.44,4.63-4.12,7.72
		c0,1.37,0.51,3.43,1.54,6.18l98.93,233.76l-40.19,96.8c-1.03,2.06-1.54,4.29-1.54,6.69c0,3.09,1.03,5.66,3.09,7.72
		c2.06,2.06,4.64,3.09,7.73,3.09h56.67c7.56,0,12.71-3.6,15.46-10.81l145.82-337.25c1.03-3.09,1.54-5.32,1.54-6.69
		C1809.17,909.08,1807.97,906.68,1805.57,904.62z"/>
</g>
<g>
	<path class="st1" d="M1205.24,833.84v-17.78c0-3.78-1.2-6.87-3.61-9.27c-2.4-2.4-5.49-3.6-9.27-3.6h-62.86
		c-3.78,0-6.87,1.2-9.27,3.6c-2.41,2.4-3.61,5.49-3.61,9.27v110.18c-19.24-20.25-44.48-30.38-75.74-30.38
		c-33.32,0-59.6,10.81-78.84,32.44c-18.89,21.62-29.03,50.97-30.4,88.04l-0.52,18.54l0.52,18.02c0.35,7.89,1.08,15.4,2.14,22.57
		c31.4-21.12,61.23-42.8,89.33-64.85c1.68-12.93,5.36-23.38,11.06-31.35c7.21-9.61,18.89-14.42,35.04-14.42c3,0,5.84,0.19,8.56,0.55
		C1127.48,921.99,1170.35,877.67,1205.24,833.84z"/>
	<path class="st1" d="M312.74,1011.72c-0.34,4.46-0.52,12.18-0.52,23.17c0,10.98,0.17,18.71,0.52,23.17
		c2.06,36.73,14.6,65.22,37.61,85.47c23.01,20.25,55.82,30.38,98.41,30.38c42.94,0,75.91-10.13,98.93-30.38
		c23.01-20.25,35.55-48.74,37.61-85.47c0.34-4.46,0.51-12.18,0.51-23.17c0-10.99-0.17-18.71-0.51-23.17
		c-2.06-36.38-14.94-64.7-38.64-84.96c-23.7-20.59-56.33-30.89-97.9-30.89c-41.22,0-73.68,10.3-97.38,30.89
		C327.69,947.01,314.81,975.33,312.74,1011.72z M403.43,1014.29c1.72-37.07,16.83-55.61,45.34-55.61c14.77,0,25.76,4.63,32.98,13.9
		c7.56,9.27,11.85,23.17,12.88,41.71c0.34,3.43,0.52,10.3,0.52,20.6c0,10.3-0.17,17.16-0.52,20.59
		c-1.03,18.88-5.15,32.95-12.37,42.22c-7.21,8.93-18.38,13.39-33.49,13.39c-14.77,0-25.94-4.46-33.49-13.39
		c-7.21-9.27-11.16-23.34-11.85-42.22l-0.52-20.59L403.43,1014.29z"/>
	<path class="st1" d="M882.78,999.36c0-31.58-10.13-56.64-30.4-75.17c-20.27-18.88-51.52-28.32-93.77-28.32
		c-26.45,0-48.78,4.12-66.98,12.36c-17.86,8.24-31.26,18.02-40.19,29.35c-8.59,11.33-13.05,21.62-13.4,30.89
		c-0.34,3.09,0.52,5.84,2.58,8.24c2.41,2.06,5.33,3.09,8.76,3.09h56.16c2.75,0,4.64-1.37,5.67-4.12c2.4-1.37,6.01-4.12,10.82-8.24
		c5.5-4.81,10.82-8.58,15.97-11.33c5.15-2.75,11.68-4.12,19.58-4.12c13.05,0,22.33,3.09,27.82,9.27c5.5,6.18,8.24,15.79,8.24,28.83
		v7.21l-64.41,9.78c-34.01,5.49-60.8,15.45-80.38,29.86c-19.24,14.42-28.85,33.47-28.85,57.15c0,14.76,4.12,28.32,12.37,40.68
		c8.59,12.01,20.27,21.62,35.04,28.83c15.11,6.86,31.77,10.3,49.98,10.3c18.55,0,34.52-3.26,47.92-9.78
		c13.74-6.86,24.39-15.62,31.95-26.26v18.02c0,0.75,0.07,1.47,0.18,2.19c29.42-16.01,57.9-32.59,85.35-49.63V999.36z
		 M794.67,1054.45c0,19.91-4.98,35.01-14.94,45.31c-9.62,10.3-22.33,15.45-38.13,15.45c-10.31,0-19.06-2.4-26.28-7.21
		c-7.21-5.15-10.82-12.01-10.82-20.59c0-16.13,15.46-26.95,46.37-32.44l43.8-7.72V1054.45z"/>
	<path class="st1" d="M35.64,1168.76h237.02c3.78,0,6.87-1.2,9.27-3.6c2.4-2.75,3.61-5.84,3.61-9.27v-51.49
		c0-3.78-1.2-6.86-3.61-9.27c-2.4-2.75-5.5-4.12-9.27-4.12H116.54v-269.8c0-3.78-1.2-6.87-3.61-9.27c-2.4-2.4-5.5-3.6-9.27-3.6
		H35.64c-3.43,0-6.53,1.2-9.27,3.6c-2.4,2.4-3.61,5.49-3.61,9.27v334.67c0,3.43,1.2,6.52,3.61,9.27
		C29.12,1167.56,32.21,1168.76,35.64,1168.76z"/>
</g>
<g>
	<path class="st2" d="M999.7,167.06l15.84-121.67c0.3-2.34-3.06-3.08-3.76-0.82l-55.91,180.53l0,0l-23.18,73.5l129.62,7.02
		c3.24,0.15,5.06,3.8,3.24,6.48L847.92,633.07c21.62,6.24,44.46,9.59,68.08,9.59c135.39,0,245.14-109.75,245.14-245.14
		C1161.14,291.53,1093.87,201.26,999.7,167.06z"/>
	<path class="st1" d="M927.85,382.64l2.97-8.26c1.97-6.09,0.66-5.38-6.41-5.38l-81.86-0.64c-3.27-0.03-5.73-3-5.14-6.22l38.01-206.4
		c-116.07,19.34-204.56,120.22-204.56,241.78c0,104.47,65.36,193.65,157.41,228.95l-10.33,51.01c-0.58,2.87,3.55,4.02,4.53,1.26
		L927.85,382.64L927.85,382.64z"/>
</g>
</svg>
